<?xml version="1.0" encoding="UTF-8"?>
<svg xmlns="http://www.w3.org/2000/svg" xmlns:serif="http://www.serif.com/" version="1.1"
  viewBox="0 0 120 120">
  <defs>
    <style>
      .cls-1 {
      fill: #151313;
      fill-rule: evenodd;
      }
    </style>
  </defs>
  <!-- Generator: Adobe Illustrator 28.7.3, SVG Export Plug-In . SVG Version: 1.2.0 Build 164)  -->
  <g>
    <g id="Layer_1">
      <path class="cls-1"
        d="M60,0C26.9,0,0,27.5,0,61.5s17.2,50.2,41,58.3c3,.6,4.1-1.3,4.1-3s0-5.3,0-10.5c-16.7,3.7-20.2-8.2-20.2-8.2-2.7-7.1-6.7-9-6.7-9-5.4-3.8.4-3.7.4-3.7,6,.4,9.2,6.3,9.2,6.3,5.4,9.4,14,6.7,17.5,5.1.5-4,2.1-6.7,3.8-8.2-13.3-1.6-27.3-6.8-27.3-30.4s2.3-12.2,6.2-16.5c-.6-1.6-2.7-7.8.6-16.3,0,0,5-1.7,16.5,6.3,4.8-1.4,9.9-2,15-2.1,5.1,0,10.2.7,15,2.1,11.5-8,16.5-6.3,16.5-6.3,3.3,8.5,1.2,14.7.6,16.3,3.8,4.3,6.2,9.8,6.2,16.5,0,23.6-14,28.8-27.4,30.3,2.1,1.9,4.1,5.7,4.1,11.4,0,8.2,0,14.9,0,16.9s1.1,3.6,4.1,2.9c23.9-8.1,41-31.1,41-58.3S93.1,0,60,0Z" />
    </g>
  </g>
</svg>